<svg xmlns="http://www.w3.org/2000/svg" version="1.1" xmlns:xlink="http://www.w3.org/1999/xlink" xmlns:svgjs="http://svgjs.dev/svgjs" width="1500" height="1500" viewBox="0 0 1500 1500"><rect width="1500" height="1500" fill="#581381"></rect><g transform="matrix(0.6666666666666666,0,0,0.6666666666666666,249.39393939393938,688.5740840516605)"><svg viewBox="0 0 396 49" data-background-color="#581381" preserveAspectRatio="xMidYMid meet" height="185" width="1500" xmlns="http://www.w3.org/2000/svg" xmlns:xlink="http://www.w3.org/1999/xlink"><g id="tight-bounds" transform="matrix(1,0,0,1,0.2400000000000091,-0.09564960971380287)"><svg viewBox="0 0 395.52 49.19129921942758" height="49.19129921942758" width="395.52"><g><svg viewBox="0 0 395.52 49.19129921942758" height="49.19129921942758" width="395.52"><g><svg viewBox="0 0 395.52 49.19129921942758" height="49.19129921942758" width="395.52"><g id="textblocktransform"><svg viewBox="0 0 395.52 49.19129921942758" height="49.19129921942758" width="395.52" id="textblock"><g><svg viewBox="0 0 395.52 49.19129921942758" height="49.19129921942758" width="395.52"><g transform="matrix(1,0,0,1,0,0)"><svg width="395.52" viewBox="3.25 -35.01 281.47 35.01" height="49.19129921942758" data-palette-color="#f5a1e8"><path d="M27.25-7.01L27.25 0 3.25 0 3.25-35.01 27.25-35.01 27.25-28 10.25-28 10.25-21 21.75-21 21.75-13.99 10.25-13.99 10.25-7.01 27.25-7.01ZM48.61-17.5L59.35 0 50.85 0 44.11-11.3 37.35 0 28.9 0 39.65-17.5 28.9-35.01 37.35-35.01 44.11-23.71 50.85-35.01 59.35-35.01 48.61-17.5ZM76.61-28L69.6-28 69.6-13.99 76.61-13.99Q78.05-13.99 79.32-14.54 80.59-15.09 81.54-16.04 82.49-16.99 83.04-18.27 83.59-19.56 83.59-21L83.59-21Q83.59-22.44 83.04-23.72 82.49-25 81.54-25.95 80.59-26.9 79.32-27.45 78.05-28 76.61-28L76.61-28ZM69.6-7.01L69.6 0 62.59 0 62.59-35.01 76.61-35.01Q78.54-35.01 80.32-34.51 82.1-34.01 83.65-33.09 85.2-32.18 86.48-30.9 87.76-29.61 88.68-28.05 89.59-26.49 90.1-24.71 90.6-22.92 90.6-21L90.6-21Q90.6-18.12 89.5-15.56 88.4-13.01 86.49-11.11 84.59-9.2 82.04-8.11 79.49-7.01 76.61-7.01L76.61-7.01 69.6-7.01ZM108.71-28L101.7-28 101.7-13.99 108.71-13.99Q110.15-13.99 111.42-14.54 112.69-15.09 113.64-16.04 114.59-16.99 115.14-18.27 115.69-19.56 115.69-21L115.69-21Q115.69-22.44 115.14-23.72 114.59-25 113.64-25.95 112.69-26.9 111.42-27.45 110.15-28 108.71-28L108.71-28ZM101.7-7.01L101.7 0 94.69 0 94.69-35.01 108.71-35.01Q110.64-35.01 112.42-34.51 114.2-34.01 115.75-33.09 117.3-32.18 118.58-30.9 119.87-29.61 120.78-28.05 121.7-26.49 122.2-24.71 122.7-22.92 122.7-21L122.7-21Q122.7-19.19 122.25-17.48 121.79-15.77 120.95-14.23 120.11-12.7 118.89-11.4 117.67-10.11 116.15-9.16L116.15-9.16 120.04 0 112.59 0 109.54-7.06 101.7-7.01ZM151.28-7.01L151.28 0 127.28 0 127.28-35.01 151.28-35.01 151.28-28 134.29-28 134.29-21 145.79-21 145.79-13.99 134.29-13.99 134.29-7.01 151.28-7.01ZM153.75-24.51L153.75-24.51Q153.75-26.68 154.58-28.59 155.41-30.49 156.84-31.92 158.26-33.35 160.17-34.18 162.07-35.01 164.25-35.01L164.25-35.01 180.31-35.01 180.31-28 164.25-28Q163.51-28 162.88-27.73 162.24-27.47 161.77-26.99 161.29-26.51 161.02-25.88 160.75-25.24 160.75-24.51L160.75-24.51Q160.75-23.78 161.02-23.13 161.29-22.49 161.77-22.01 162.24-21.53 162.88-21.26 163.51-21 164.25-21L164.25-21 171.25-21Q173.43-21 175.34-20.18 177.26-19.36 178.69-17.93 180.11-16.5 180.93-14.59 181.75-12.67 181.75-10.5L181.75-10.5Q181.75-8.33 180.93-6.42 180.11-4.52 178.69-3.09 177.26-1.66 175.34-0.83 173.43 0 171.25 0L171.25 0 155.7 0 155.7-7.01 171.25-7.01Q171.98-7.01 172.62-7.28 173.25-7.54 173.73-8.02 174.21-8.5 174.47-9.13 174.74-9.77 174.74-10.5L174.74-10.5Q174.74-11.23 174.47-11.87 174.21-12.5 173.73-12.98 173.25-13.45 172.62-13.72 171.98-13.99 171.25-13.99L171.25-13.99 164.25-13.99Q162.07-13.99 160.17-14.82 158.26-15.65 156.84-17.08 155.41-18.51 154.58-20.42 153.75-22.34 153.75-24.51ZM184.29-24.51L184.29-24.51Q184.29-26.68 185.12-28.59 185.95-30.49 187.38-31.92 188.8-33.35 190.71-34.18 192.61-35.01 194.78-35.01L194.78-35.01 210.85-35.01 210.85-28 194.78-28Q194.05-28 193.42-27.73 192.78-27.47 192.31-26.99 191.83-26.51 191.56-25.88 191.29-25.24 191.29-24.51L191.29-24.51Q191.29-23.78 191.56-23.13 191.83-22.49 192.31-22.01 192.78-21.53 193.42-21.26 194.05-21 194.78-21L194.78-21 201.79-21Q203.96-21 205.88-20.18 207.8-19.36 209.23-17.93 210.65-16.5 211.47-14.59 212.29-12.67 212.29-10.5L212.29-10.5Q212.29-8.33 211.47-6.42 210.65-4.52 209.23-3.09 207.8-1.66 205.88-0.83 203.96 0 201.79 0L201.79 0 186.24 0 186.24-7.01 201.79-7.01Q202.52-7.01 203.16-7.28 203.79-7.54 204.27-8.02 204.75-8.5 205.01-9.13 205.28-9.77 205.28-10.5L205.28-10.5Q205.28-11.23 205.01-11.87 204.75-12.5 204.27-12.98 203.79-13.45 203.16-13.72 202.52-13.99 201.79-13.99L201.79-13.99 194.78-13.99Q192.61-13.99 190.71-14.82 188.8-15.65 187.38-17.08 185.95-18.51 185.12-20.42 184.29-22.34 184.29-24.51ZM223.88-35.01L223.88 0 216.88 0 216.88-35.01 223.88-35.01ZM237.38-13.99L237.38 0 230.38 0 230.38-35.01 254.89-35.01 254.89-28 237.38-28 237.38-21 247.88-21 247.88-13.99 237.38-13.99ZM274.22-10.96L274.22 0 267.24 0 267.24-10.96Q264.92-11.55 262.98-12.84 261.04-14.14 259.65-15.93 258.25-17.72 257.48-19.91 256.72-22.09 256.72-24.51L256.72-24.51 256.72-35.01 263.72-35.01 263.72-24.51Q263.72-23.07 264.27-21.79 264.82-20.51 265.77-19.56 266.73-18.6 268.01-18.05 269.29-17.5 270.73-17.5L270.73-17.5Q272.17-17.5 273.45-18.05 274.73-18.6 275.69-19.56 276.64-20.51 277.19-21.79 277.74-23.07 277.74-24.51L277.74-24.51 277.74-35.01 284.72-35.01 284.72-24.51Q284.72-22.09 283.95-19.91 283.18-17.72 281.79-15.93 280.4-14.14 278.47-12.84 276.54-11.55 274.22-10.96L274.22-10.96Z" opacity="1" transform="matrix(1,0,0,1,0,0)" fill="#f5a1e8" class="wordmark-text-0" data-fill-palette-color="primary" id="text-0"></path></svg></g></svg></g></svg></g></svg></g></svg></g><defs></defs></svg><rect width="395.52" height="49.19129921942758" fill="none" stroke="none" visibility="hidden"></rect></g></svg></g></svg>